<svg xmlns="http://www.w3.org/2000/svg" width="240" height="240" viewBox="0 0 240 240">
  <g stroke="none" opacity="0.16">
    <!-- Ice cream cone -->
    <g transform="translate(28,26)">
      <circle cx="12" cy="6" r="11" fill="#f472b6"/>
      <path d="M1 9 L12 38 L23 9 Z" fill="#f9a8d4"/>
    </g>
    <!-- Cake slice -->
    <g transform="translate(150,42)">
      <path d="M0 26 L20 2 L40 26 Z" fill="#fbcfe8"/>
      <path d="M0 26 L40 26 L40 33 Q20 39 0 33 Z" fill="#f472b6"/>
      <circle cx="20" cy="-3" r="3.5" fill="#f472b6"/>
    </g>
    <!-- Teddy-bear / doll face -->
    <g transform="translate(46,146)">
      <circle cx="-2" cy="-16" r="7.5" fill="#fbcfe8"/>
      <circle cx="26" cy="-16" r="7.5" fill="#fbcfe8"/>
      <circle cx="12" cy="0" r="19" fill="#fbcfe8"/>
      <circle cx="5" cy="-1" r="2.2" fill="#831843"/>
      <circle cx="19" cy="-1" r="2.2" fill="#831843"/>
      <path d="M8 7 Q12 10 16 7" fill="none" stroke="#831843" stroke-width="2" stroke-linecap="round"/>
    </g>
    <!-- Heart -->
    <g transform="translate(158,164)">
      <path d="M12 22 C-8 8 -4 -10 12 -2 C28 -10 32 8 12 22 Z" fill="#f472b6"/>
    </g>
  </g>
</svg>
